<svg xmlns="http://www.w3.org/2000/svg" width="650" height="520" viewBox="0 0 650 520">
  <title></title><defs>
    <style>
      .cls-1 {
        fill: #eeeeef;
      }

      .cls-2 {
        fill: #f5f5f5;
      }

      .cls-3 {
        fill: #f4f4f5;
      }

      .cls-4 {
        fill: #e4e4e6;
      }

      .cls-5 {
        fill: #fff;
      }

      .cls-6 {
        fill: #e9e9eb;
      }

      .cls-7 {
        fill: #f1f1f1;
      }

      .cls-8 {
        fill: #7e7b88;
      }

      .cls-9 {
        fill: #a3a1aa;
      }

      .cls-10 {
        fill: #dbdbde;
      }

      .cls-11 {
        fill: #bbbac0;
      }

      .cls-12, .cls-14, .cls-19, .cls-21 {
        fill: none;
      }

      .cls-12, .cls-14, .cls-21 {
        stroke: #000;
      }

      .cls-12 {
        stroke-linejoin: round;
      }

      .cls-13 {
        fill: #191919;
      }

      .cls-14, .cls-19, .cls-21 {
        stroke-miterlimit: 10;
      }

      .cls-15 {
        fill: #f88888;
      }

      .cls-16 {
        fill: #f43939;
      }

      .cls-17 {
        fill: #f7ddcd;
      }

      .cls-18 {
        fill: #f2f2f3;
      }

      .cls-19 {
        stroke: #fff;
        stroke-width: 2.5px;
      }

      .cls-20 {
        fill: #ffc07f;
      }

      .cls-21 {
        stroke-linecap: round;
        stroke-width: 2px;
      }

      .cls-22 {
        fill: #f1c6aa;
      }

      .cls-23, .cls-24 {
        fill: #404040;
      }

      .cls-23 {
        fill-rule: evenodd;
      }
    </style>
  </defs>
  <g id="Layer_3" data-name="Layer 3">
    <path class="cls-1" d="M271.00439,115.93555H137.47754a1.25,1.25,0,0,1,0-2.5H271.00439a1.25,1.25,0,0,1,0,2.5Z"/>
    <path class="cls-1" d="M589.10547,139.72607H442.54a1.25,1.25,0,0,1,0-2.5H589.10547a1.25,1.25,0,0,1,0,2.5Z"/>
    <path class="cls-1" d="M512.33789,228.61279H404.45605a1.25,1.25,0,0,1,0-2.5H512.33789a1.25,1.25,0,0,1,0,2.5Z"/>
    <path class="cls-1" d="M98.89307,232.11572H27.3291a1.25,1.25,0,1,1,0-2.5h71.564a95.34708,95.34708,0,0,0,67.19238-27.959l12.94482-13.0293a97.86014,97.86014,0,0,1,68.96534-28.69726h58.95654a1.25,1.25,0,0,1,0,2.5H247.99561a95.34677,95.34677,0,0,0-67.1919,27.959l-12.94482,13.0293A97.86127,97.86127,0,0,1,98.89307,232.11572Z"/>
    <path class="cls-2" d="M571.88135,335.4917A89.97711,89.97711,0,0,0,507.069,363.05688l-.00006.00007H470.14423a73.50752,73.50752,0,0,0-53.20008,22.78173l-20.13623,21.11847H232.77338l-18.32611-19.22a79.63277,79.63277,0,0,0-57.63337-24.68023H122.51227l-6.6659-6.92231A67.38183,67.38183,0,0,0,67.30994,335.4917H0V520H650V335.4917Z"/>
    <path class="cls-3" d="M624.627,303.84082a2.50783,2.50783,0,0,0-3.07031,1.75391c-1.16656,4.27935-3.62054,6.25415-8.11969,6.31146a36.39552,36.39552,0,0,0,5.439-14.98529,2.5,2.5,0,0,0-4.95118-.69727c-1.79473,12.727-9.21887,21.23816-20.5166,23.68531a18.51974,18.51974,0,0,0,.79492-5.01832c0-6.95214-2.56347-13.75878-4.82617-19.76464-.55023-1.46143-1.085-2.89392-1.57672-4.29535a33.12036,33.12036,0,0,0,3.45368.186c12.84375,0,26.31152-7.50293,30.74511-25.89355a2.50029,2.50029,0,0,0-4.86132-1.17188,33.04315,33.04315,0,0,1-3.86841,9.40338c-1.62213-2.9049-1.39258-7.24987.76684-11.34771a2.50021,2.50021,0,0,0-4.42383-2.33106c-3.43975,6.52673-3.17071,13.50818.53479,17.91931-5.44244,6.152-13.56524,9.91053-23.92108,7.96253a20.647,20.647,0,0,1-.55121-3.79883c-.28906-8.03613,9.45118-18.78027,13.22852-22.24219a2.50011,2.50011,0,0,0-3.376-3.68848,64.17074,64.17074,0,0,0-11.44513,14.35523,9.22116,9.22116,0,0,1-1.69256-5.197c-.001-3.01856,1.67187-6.04785,4.835-8.75977a2.49984,2.49984,0,1,0-3.25391-3.7959c-5.43945,4.66309-6.582,9.40137-6.58105,12.55567a14.6,14.6,0,0,0,4.41223,10.24133,18.70373,18.70373,0,0,0-1.12317,6.71082c.16992,4.72851,2.03906,9.69336,4.01953,14.95019,1.74127,4.62274,3.51148,9.3692,4.19635,14.12366-5.1474,1.01349-18.84466,2.30829-23.836-11.0885-1.35418-3.63556-.559-7.49884.60529-11.56055a12.99972,12.99972,0,0,0,10.28632-13.918,2.5002,2.5002,0,0,0-4.99415.25c.18787,3.76355-1.38592,6.19184-3.54565,7.58808a21.73974,21.73974,0,0,0,.77222-8.41816,25.5839,25.5839,0,0,0-10.05371-16.68066,2.49989,2.49989,0,0,0-2.80371,4.13965,21.21523,21.21523,0,0,1,6.61645,8.5899c-8.089,1.37458-10.58392-3.177-11.28638-5.28619a2.50018,2.50018,0,0,0-4.74414,1.58008c2.2002,6.60156,7.72071,8.93066,13.34082,8.93066a22.34677,22.34677,0,0,0,3.99713-.37573c.36268,2.975-.6538,6.39148-1.73834,10.00757-1.55469,5.18066-3.31543,11.05176-1.13769,16.89941,4.36523,11.7168,14.36133,14.95313,22.791,14.95313a33.70457,33.70457,0,0,0,5.9585-.53485c-1.01868,8.79956-12.52124,23.57653-17.08252,28.75262a2.50019,2.50019,0,0,0,3.751,3.30664c.56109-.63617,10.53338-12.02905,15.56121-22.85333.01728.00036.03376.0047.05109.0047a2.55873,2.55873,0,0,0,.34277-.02344,30.58941,30.58941,0,0,0,17.87152-8.65326,26.83542,26.83542,0,0,0,3.45954.26557c7.02637,0,11.49414-3.34278,13.30371-9.97657A2.50055,2.50055,0,0,0,624.627,303.84082Z"/>
    <path class="cls-3" d="M105.48633,278.55078a2.50011,2.50011,0,0,0-4.625,1.90039,8.76261,8.76261,0,0,1-.08985,7.3125,9.18569,9.18569,0,0,1-3.21569,3.67426,52.64517,52.64517,0,0,0-3.7428-14.3852,2.50021,2.50021,0,0,0-4.58643,1.99219c1.62647,3.75391,5.23682,14.74121,2.44971,20.42578a15.70056,15.70056,0,0,1-1.43036,2.30713c-8.30011-2.02167-13.058-6.9621-15.41357-12.4032,4.82965-1.16839,9.1665-6.48974,8.60907-15.03479a2.5,2.5,0,1,0-4.98926.32618c.246,3.77172-1.1767,9.29888-5.09229,9.90435a23.1101,23.1101,0,0,1-.082-8.42779,2.5,2.5,0,0,0-4.916-.91211c-2.85706,15.41,6.7879,26.69177,18.30548,30.68341-.66522.69134-1.35517,1.38965-2.056,2.09784-3.68555,3.72461-7.86279,7.94629-10.19434,13.168a14.70217,14.70217,0,0,0-.97687,3.30017c-5.821-4.63117-9.95983-12.54968-5.95282-22.61658a2.50009,2.50009,0,0,0-4.6455-1.84961,25.16552,25.16552,0,0,0-1.63953,13.14209,6.68345,6.68345,0,0,1-2.92883-1.74365,6.46167,6.46167,0,0,1-1.686-5.61914,2.50018,2.50018,0,0,0-4.9414-.76563,11.50374,11.50374,0,0,0,3.0332,9.86036,11.83477,11.83477,0,0,0,7.99353,3.53686,25.3818,25.3818,0,0,0,10.31555,11.84692c.01477.00916.03137.0116.0462.02045.17969,9.32416,3.494,20.28577,4.00068,21.90729a2.49986,2.49986,0,1,0,4.77246-1.49024c-1.72705-5.5371-5.60157-21.27148-2.8252-27.49023,1.96045-4.39063,5.63233-8.10156,9.18311-11.69043,3.229-3.2627,6.27881-6.34473,8-9.85644a14.97185,14.97185,0,0,0,1.33709-4.6836,13.8005,13.8005,0,0,0,7.98371-18.4375Z"/>
    <g>
      <path class="cls-1" d="M257.75072,79.61508a.8587.8587,0,0,1,.6388,1.42983,38.65,38.65,0,0,1-57.78366,0,.85871.85871,0,0,1,.63879-1.42984Z"/>
      <path class="cls-4" d="M224.924,93.75221a38.58792,38.58792,0,0,1-24.31669-12.70572.85882.85882,0,0,1,.63723-1.43141h14.34894Z"/>
      <circle class="cls-5" cx="211.17699" cy="83.6695" r="1.4749"/>
      <path class="cls-1" d="M260.62252,71.7479a12.16994,12.16994,0,0,0,0,23.64545Z"/>
    </g>
    <g>
      <path class="cls-1" d="M104.73477,186.55747c-3.6367-3.81284-11.41953-6.4649-18.81912-6.4649-10.10118,0-15.65278,4.93918-15.65278,11.032s5.5516,11.032,15.65278,11.032c7.39959,0,15.18242-2.652,18.81912-6.4649a13.67845,13.67845,0,0,0,8.20441,8.246V178.31137A13.67865,13.67865,0,0,0,104.73477,186.55747Z"/>
      <circle class="cls-5" cx="78.17393" cy="186.40693" r="1.66931"/>
      <path class="cls-4" d="M104.73477,186.55747a19.79794,19.79794,0,0,0-7.51108-4.48331l2.43488,17.088a17.27591,17.27591,0,0,0,5.0762-3.4705,13.67845,13.67845,0,0,0,8.20441,8.246V178.31137A13.67865,13.67865,0,0,0,104.73477,186.55747Z"/>
    </g>
    <g>
      <path class="cls-4" d="M510.04141,196.97161a12.16993,12.16993,0,0,0,0-23.64544Z"/>
      <path class="cls-1" d="M555.75864,185.1489c0,9.72037-12.72969,17.60029-21.27507,17.60029s-15.47277-7.87992-15.47277-17.60029,6.9274-17.60028,15.47277-17.60028S555.75864,175.42853,555.75864,185.1489Z"/>
      <circle class="cls-5" cx="548.26402" cy="178.52462" r="1.78904"/>
      <path class="cls-4" d="M532.9803,167.635l.84554,35.0764c.21976.01056.43566.03779.65773.03779a23.917,23.917,0,0,0,12.03243-3.9147l-2.20164-28.62207a22.54849,22.54849,0,0,0-9.83079-2.66379A13.766,13.766,0,0,0,532.9803,167.635Z"/>
      <path class="cls-5" d="M531.29232,192.59462c4.161-.82089,7.25284-3.83847,7.25284-7.44578s-3.09182-6.62486-7.25284-7.44575Z"/>
    </g>
    <g>
      <path class="cls-6" d="M55.30522,435.47558a4.98123,4.98123,0,0,1-.69861-6.46531,17.19112,17.19112,0,0,0-1.52806-21.84576,5.13867,5.13867,0,0,1-.55333-6.47729,14.40709,14.40709,0,0,0-1.533-18.10392,4.97388,4.97388,0,0,1-.50829-6.14923,11.71649,11.71649,0,1,0-19.84882-.06161,5.11935,5.11935,0,0,1-.53719,6.28165,14.40692,14.40692,0,0,0-1.46539,18.03311,5.13868,5.13868,0,0,1-.55333,6.47729,17.19112,17.19112,0,0,0-1.52779,21.84614,4.96625,4.96625,0,0,1-.68007,6.44688,21.25493,21.25493,0,1,0,29.43391.018Z"/>
      <path class="cls-2" d="M40.5791,473.68359a1.24991,1.24991,0,0,1-1.25-1.25V390.32812a1.25,1.25,0,0,1,2.5,0v82.10547A1.24991,1.24991,0,0,1,40.5791,473.68359Z"/>
    </g>
    <g>
      <path class="cls-6" d="M611.19845,450.65878a5.57073,5.57073,0,0,1-.78129-7.23044,19.22559,19.22559,0,0,0-1.7089-24.43106,5.74678,5.74678,0,0,1-.61881-7.24382,16.11207,16.11207,0,0,0-1.71445-20.2464,5.56251,5.56251,0,0,1-.56844-6.877,13.10305,13.10305,0,1,0-22.1978-.06889,5.72519,5.72519,0,0,1-.60077,7.025,16.11189,16.11189,0,0,0-1.6388,20.16721,5.74679,5.74679,0,0,1-.61881,7.24382,19.22557,19.22557,0,0,0-1.7086,24.43149,5.554,5.554,0,0,1-.76055,7.20982,23.77031,23.77031,0,1,0,32.91722.02019Z"/>
      <path class="cls-2" d="M594.72949,493.24121a1.24991,1.24991,0,0,1-1.25-1.25V398.70215a1.25,1.25,0,1,1,2.5,0v93.28906A1.24991,1.24991,0,0,1,594.72949,493.24121Z"/>
    </g>
    <path class="cls-6" d="M228.33118,520H51.64409V481.66557H163.04063A74.7681,74.7681,0,0,1,228.33116,520Z"/>
    <path class="cls-6" d="M122.04327,520l-18.08984-37.41638a57.1724,57.1724,0,0,0-51.47229-32.28687H0V520Z"/>
    <path class="cls-6" d="M106.30365,507.69464A18.73794,18.73794,0,0,0,112.73871,520h11.05817V446.54492a1.25,1.25,0,0,1,2.5,0V520h11.077a18.79806,18.79806,0,0,0,.72479-27.79315,4.4147,4.4147,0,0,1-.6192-5.73,15.23586,15.23586,0,0,0-1.35425-19.36127,4.55426,4.55426,0,0,1-.49041-5.74066,12.76867,12.76867,0,0,0-1.35865-16.045,4.40819,4.40819,0,0,1-.4505-5.4499,10.384,10.384,0,1,0-17.59149-.05462,4.5371,4.5371,0,0,1-.47607,5.56726,12.76845,12.76845,0,0,0-1.29877,15.98224,4.55426,4.55426,0,0,1-.49036,5.74066,15.236,15.236,0,0,0-1.35406,19.36163,4.40144,4.40144,0,0,1-.60272,5.71369A18.79533,18.79533,0,0,0,106.30365,507.69464Z"/>
    <path class="cls-6" d="M650,520V471.08521H431.36188a107.19824,107.19824,0,0,0-85.31146,42.28735L341.00781,520Z"/>
  </g>
  <g id="Layer_4" data-name="Layer 4">
    <path class="cls-7" d="M335.6037,73.95283c0-24.192,19.37279-52.29315,25.803-60.95283H348.17455c-8.94382,13.16125-23.3413,37.91861-23.3413,60.95283,0,18.94178,7.878,34.39975,15.49654,49.34935,6.97228,13.68043,13.55772,26.60239,13.55772,41.19438,0,29.81039-20.52064,53.397-20.72866,53.63194l4.0319,3.57028,4.02606,3.57612c.95714-1.07809,23.44115-26.78587,23.44115-60.77834,0-17.17766-7.48883-31.87366-14.73223-46.08525C342.56078,103.959,335.6037,90.30834,335.6037,73.95283Z"/>
    <path class="cls-8" d="M434.84869,520a17.51714,17.51714,0,0,0-31.11218,0Z"/>
    <path class="cls-9" d="M507.71736,475.80382H417.60293V520h90.11443Z"/>
    <rect class="cls-10" x="425.77051" y="483.97128" width="73.77956" height="31.13754"/>
    <path class="cls-11" d="M507.71736,520h24.31843V475.80319H507.71736Z"/>
    <rect class="cls-10" x="515.88504" y="483.97029" width="7.98304" height="31.13854"/>
    <path class="cls-5" d="M451.8328,483.97067h21.6547v13.89451a5.67072,5.67072,0,0,1-5.66917,5.67085H457.502a5.67074,5.67074,0,0,1-5.66917-5.67085Z"/>
    <path class="cls-9" d="M512.227,405.76181H432.16742a8.16748,8.16748,0,0,0-6.28505,2.95155l-8.27944,9.97647,30.53838,57.11336h83.89511l10.72891-12.9274Z"/>
    <path class="cls-11" d="M501.498,418.68977H417.60293l30.53838,57.11342h83.89511Z"/>
    <path d="M448.43851,418.68977l5.52977,10.20466a40.582,40.582,0,0,1,4.90189,19.33465v0a40.58206,40.58206,0,0,1-9.354,25.91736l-1.375,1.65671h83.89517L501.498,418.68977Z"/>
    <path class="cls-9" d="M512.227,405.76181l6.98535,3.84923a45.52368,45.52368,0,0,1,18.05418,18.18189l0,0a45.52364,45.52364,0,0,1,5.49883,21.68909v13.39375Z"/>
    <path class="cls-10" d="M512.227,405.76181l-10.72892,12.928H417.60293l9.198-11.0833a5.10468,5.10468,0,0,1,3.92815-1.84472Z"/>
    <path d="M466.25084,498.66991,464.54,494.74857a.37047.37047,0,0,1,.1553-.46419,3.85842,3.85842,0,1,0-4.06888.00083.36817.36817,0,0,1,.15463.46179l-1.71155,3.92291a.47.47,0,0,0,.4308.658H465.82A.47.47,0,0,0,466.25084,498.66991Z"/>
    <path class="cls-12" d="M275.53758,239.77347s-42.48582,27.9867-40.1255,46.19491c3.37189,16.52227,54.17505,4.38346,54.17505,4.38346l34.50568-5.395,40.12551,10.45287s38.77674,10.79005,42.823,22.25448c2.48417,7.03848-19.21978,35.40485-19.21978,35.40485"/>
    <circle class="cls-13" cx="292.65929" cy="268.3596" r="2.65711"/>
    <circle class="cls-13" cx="353.01614" cy="270.71992" r="2.65711"/>
    <path class="cls-14" d="M321.05811,365.8822s-74.51879,25.62637-78.56506,35.06767c-4.07451,9.50719,12.476,66.76344,12.476,66.76344"/>
    <path class="cls-14" d="M339.49112,301.59148S329.37544,394.43088,366.691,501.8818"/>
    <path d="M380.572,340.25583,399.286,356.188a19.873,19.873,0,0,1-15.62757,15.62765l-1.71423,1.17744-13.64111-9.87639a3.65234,3.65234,0,0,1-.89111-5.07789Z"/>
    <path d="M365.17305,363.79406l.04042.26818a3.34427,3.34427,0,0,0,3.17057,2.82866l1.70917.05919,1.66767,3.39552a3.68028,3.68028,0,0,0,3.65257,2.11194l2.529-.2282,1.55457,3.07189a5.2697,5.2697,0,0,0,8.43536,1.3329l4.13719-4.12585a4.15465,4.15465,0,0,0,.07308-5.82507l-1.59582-1.66046-21.43744-9.27944-2.95987,3.95526A5.54981,5.54981,0,0,0,365.17305,363.79406Z"/>
    <path class="cls-8" d="M385.127,371.73926a1.2499,1.2499,0,0,1-.31933-2.458,44.62515,44.62515,0,0,0,6.6289-2.88086,1.25024,1.25024,0,1,1,1.168,2.21094,46.075,46.075,0,0,1-7.15625,3.08594A1.257,1.257,0,0,1,385.127,371.73926Z"/>
    <path d="M227.93772,491.57267h43.521l-6.20538-34.64941-25.514,4.49585s4.18677,17.75863,1.35039,20.66487a12.53891,12.53891,0,0,1-5.67765,3.33176C228.96832,487.05933,228.64892,488.06126,227.93772,491.57267Z"/>
    <path d="M396.81659,520c-1.20306-1.879-3.67346-2.71942-8.51965-3.95685a12.27419,12.27419,0,0,1-8.70038-8.88995l-4.813-19.54578-23.71564,5.50745L355.6734,520Z"/>
    <path class="cls-15" d="M362.19518,358.01445l-79.57663-.22479c-3.14709-25.40158-6.63617-52.257-.67437-76.54193L367.253,291.36341Z"/>
    <path class="cls-15" d="M335.73562,490.62517c-33.14469-107.80057-23.55743-188.13355-23.13943-191.96369l53.79055,5.86041-26.89527-2.93021,26.90026,2.88534c-.08424.804-6.64746,78.78684,20.029,172.54873a22.44312,22.44312,0,0,1-19.05106,28.40442l-7.60747.87405A22.45183,22.45183,0,0,1,335.73562,490.62517Z"/>
    <path class="cls-15" d="M247.27363,474.07308a22.44978,22.44978,0,0,1-23.16035-16.79914c-1.05021-4.082-2.17067-8.58668-3.25325-13.21187-7.80258-33.33894-7.15652-44.61808-3.23429-53.77061,4.815-11.23329,13.999-19.03387,55.69534-35.56625,19.49249-7.72881,38.15348-14.15751,38.93813-14.4277l17.59917,51.16743c-20.2605,11.73976-45.569,20.87278-59.82893,23.45859,1.10313,6.25457,3.902,18.36906,6.98148,30.67793a22.46392,22.46392,0,0,1-20.37112,27.88109Z"/>
    <path class="cls-15" d="M390.22593,354.909l-5.68845-4.35227a15.32592,15.32592,0,0,1-3.465-20.612c1.53312-2.32656,2.93195-4.55339,4.10286-6.53253a158.41574,158.41574,0,0,0-25.87633-9.76668l-36.16844-9.42173-29.90425,4.675c-14.11115,3.31106-46.90023,9.28214-64.07568-1.665a27.13286,27.13286,0,0,1-12.24475-17.48851q-.13683-.67-.22482-1.349c-1.87687-14.482,6.159-29.22778,25.28959-46.40671,3.34178-3.00082,6.70125-5.77847,9.78551-8.209a15.29972,15.29972,0,0,1,22.23,3.62574l3.93022,5.96084a15.35084,15.35084,0,0,1-3.29442,20.447,145.65054,145.65054,0,0,0-13.13985,11.784,152.71579,152.71579,0,0,0,23.69033-3.61117c.49676-.11769.99269-.21724,1.49707-.29609l34.50593-5.39482a18.87693,18.87693,0,0,1,7.678.38335L368.979,277.1321c.1017.02592.20239.05334.30309.08125a228.54474,228.54474,0,0,1,21.92021,7.51794c19.56328,7.92322,29.94114,16.14055,33.65,26.646,3.85244,10.91923-1.1974,22.18741-10.5932,36.82946-.661,1.02993-1.32557,2.04477-1.98368,3.03368A15.31,15.31,0,0,1,390.22593,354.909ZM388.61,316.6126Z"/>
    <rect class="cls-16" x="334.04465" y="408.67641" width="31.11237" height="48.01471" rx="15.55617" transform="translate(-70.90607 68.52731) rotate(-10.17004)"/>
    <path class="cls-16" d="M217.62574,390.29146c-2.603,6.07414-3.75946,13.09307-1.96466,26.86692a15.552,15.552,0,0,0,16.94545-9.37773l6.46864-15.61557a15.56117,15.56117,0,0,0-5.63751-18.82942C224.03924,379.2476,220.20325,384.27819,217.62574,390.29146Z"/>
    <path d="M323.60986,360.915c-31.19726,0-48.68506-8.67676-49.6875-9.18848l7.23975-14.26855c.07422.03711,7.57129,3.71387,21.377,5.875,12.76612,1.998,33.69336,3.07226,60.90528-3.15723l3.57031,15.5957A194.40087,194.40087,0,0,1,323.60986,360.915Z"/>
    <path d="M335.38477,358.08105a3.99981,3.99981,0,0,1-3.99024-3.7832c-1.71289-31.53418,17.06445-79.3584,17.86524-81.3789a3.99973,3.99973,0,1,1,7.4375,2.94531c-.18946.47851-18.93262,48.22168-17.31446,78a3.9998,3.9998,0,0,1-3.77734,4.21094C335.53223,358.0791,335.458,358.08105,335.38477,358.08105Z"/>
    <path d="M297.90039,351.22461a4,4,0,0,1-3.98633-3.72266c-1.78467-25.65429-2.69726-72.11718-2.70605-72.584a3.99976,3.99976,0,1,1,7.998-.1543c.00928.46387.918,46.72852,2.68848,72.1836a4,4,0,0,1-3.71289,4.26757C298.0874,351.22168,297.99365,351.22461,297.90039,351.22461Z"/>
    <path class="cls-8" d="M353.13857,252.96614l3.92183-.83229a2.04187,2.04187,0,0,0,1.618-1.99739V231.092a2.04186,2.04186,0,0,0-1.618-1.99739l-5.2082-1.10524A30.536,30.536,0,0,0,337.838,213.23321l-.85808-4.04334a2.04187,2.04187,0,0,0-1.99739-1.618H315.938a2.04188,2.04188,0,0,0-1.9974,1.618l-.934,4.40155a30.64087,30.64087,0,0,0-13.27572,14.33286l-4.0299,1.25346a2.04189,2.04189,0,0,0-1.618,1.99739v19.04449a2.04187,2.04187,0,0,0,1.618,1.99739l2.74774.8151a32.64517,32.64517,0,0,0,4.08255,8.18632,3.06056,3.06056,0,0,1-1.95614,4.776c-3.47905.62426-9.98939,2.25247-13.23593,3.28311a2.02933,2.02933,0,0,0-1.41129,1.98354c.68478,23.36939,20.42478,37.74858,34.00624,37.74858,13.59664,0,39.25277-11.94339,40.18774-35.25291a2.0124,2.0124,0,0,0-1.2986-1.95029,72.06623,72.06623,0,0,0-7.58011-2.45677c-3.32234-.85892-5.30183-4.2375-3.86909-5.96258A32.3797,32.3797,0,0,0,353.13857,252.96614Z"/>
    <g>
      <path d="M350.81149,280.94565a2.5568,2.5568,0,0,1-1.80657-.74526,2.33944,2.33944,0,0,1-.31606-.38784,2.52662,2.52662,0,0,1-.23529-.43918,2.57572,2.57572,0,0,1-.14257-.47956,2.03206,2.03206,0,0,1-.05185-.5005,2.079,2.079,0,0,1,.05185-.5,2.4673,2.4673,0,0,1,.14257-.46959,2.28171,2.28171,0,0,1,.23529-.44965,3.70715,3.70715,0,0,1,.31606-.38783,2.98194,2.98194,0,0,1,.38783-.31655,3.70728,3.70728,0,0,1,.43868-.2348,2.58561,2.58561,0,0,1,.48056-.14257,2.7408,2.7408,0,0,1,1,0,2.4564,2.4564,0,0,1,.46959.14257,3.19251,3.19251,0,0,1,.44965.2348,3.84314,3.84314,0,0,1,.38784.31655,2.56471,2.56471,0,0,1,0,3.61415A2.57484,2.57484,0,0,1,350.81149,280.94565Z"/>
      <path d="M318.9895,301.39527a2.54266,2.54266,0,0,1,2.32752-2.74675h0a2.56006,2.56006,0,0,1,2.75672,2.338h0a2.55084,2.55084,0,0,1-2.338,2.74676h0a1.473,1.473,0,0,1-.20438.01h0A2.54822,2.54822,0,0,1,318.9895,301.39527Zm12.75123-2.7976a2.54341,2.54341,0,0,1,1.16451-3.40977h0a2.55,2.55,0,0,1,3.41973,1.15354h0a2.5541,2.5541,0,0,1-1.1635,3.41974h0a2.47825,2.47825,0,0,1-1.12363.2662h0A2.53933,2.53933,0,0,1,331.74073,298.59767Zm-23.9202,1.02094a2.55553,2.55553,0,0,1-.77617-3.52243h0a2.54873,2.54873,0,0,1,3.52242-.78564h0a2.55814,2.55814,0,0,1,.78615,3.52242h0a2.563,2.563,0,0,1-2.16451,1.18345h0A2.5915,2.5915,0,0,1,307.82053,299.61861Zm34.998-7.97307a2.54971,2.54971,0,0,1-.14357-3.60419h0a2.55014,2.55014,0,0,1,3.60419-.15353h0a2.57266,2.57266,0,0,1,.15354,3.61415h0a2.57935,2.57935,0,0,1-1.87936.81655h0A2.51555,2.51555,0,0,1,342.81848,291.64554Zm-45.03383-1.87936a2.549,2.549,0,0,1,.70439-3.54237h0a2.551,2.551,0,0,1,3.54286.70488h0a2.5626,2.5626,0,0,1-.71485,3.54237h0a2.53314,2.53314,0,0,1-1.40877.42871h0A2.54219,2.54219,0,0,1,297.78465,289.76618Z"/>
      <path d="M295.05883,278.81206a1.99536,1.99536,0,0,1-.49-.05135,2.57019,2.57019,0,0,1-.48006-.14257,2.28923,2.28923,0,0,1-.43918-.2348,2.486,2.486,0,0,1-.70439-.70438,2.75125,2.75125,0,0,1-.38783-.91924,2.784,2.784,0,0,1-.05085-.5,2.89382,2.89382,0,0,1,.05085-.5005,2.54679,2.54679,0,0,1,.153-.46959,2.71872,2.71872,0,0,1,.23479-.44915,2.24943,2.24943,0,0,1,.31655-.37787,2.48859,2.48859,0,0,1,.38784-.32652,3.01988,3.01988,0,0,1,.43918-.2348,2.60974,2.60974,0,0,1,.48006-.14307,2.55421,2.55421,0,0,1,2.29711.70439,2.27343,2.27343,0,0,1,.31655.37787,2.37275,2.37275,0,0,1,.23479.44915,2.546,2.546,0,0,1,.153.46959,3.08123,3.08123,0,0,1,0,1.0005,2.75125,2.75125,0,0,1-.38783.91924,1.97845,1.97845,0,0,1-.31655.38783A2.542,2.542,0,0,1,295.05883,278.81206Z"/>
    </g>
    <rect class="cls-8" x="326.93083" y="338.02128" width="17.19664" height="28.29466" rx="2.04187" transform="matrix(0.99901, -0.04442, 0.04442, 0.99901, -15.31361, 15.25334)"/>
    <ellipse class="cls-17" cx="319.47626" cy="241.65456" rx="13.27216" ry="15.94411"/>
    <rect class="cls-8" x="287.55463" y="336.17611" width="17.19664" height="28.29466" rx="2.04187" transform="translate(48.92463 -36.08469) rotate(7.5986)"/>
    <path d="M319.7085,423.10547a1.25012,1.25012,0,0,1-1.21338-.95313c-7.603-31.083-4.94824-64.96972-4.92041-65.30761a1.24974,1.24974,0,1,1,2.49121.20312c-.02735.335-2.647,33.83106,4.85791,64.51074a1.2514,1.2514,0,0,1-1.21533,1.54688Z"/>
    <path d="M272.16406,429.51172a1.25032,1.25032,0,0,1-1.2207-.98731l-5.957-27.76171a1.25008,1.25008,0,1,1,2.44433-.5254l5.957,27.76172a1.25092,1.25092,0,0,1-.96,1.48536A1.28316,1.28316,0,0,1,272.16406,429.51172Z"/>
    <path d="M279.58252,325.32031a1.25021,1.25021,0,0,1-1.2251-1.00879,159.9372,159.9372,0,0,1-2.49609-28.2373,1.25037,1.25037,0,0,1,1.25-1.24024h.00928a1.25005,1.25005,0,0,1,1.24072,1.25977,157.2351,157.2351,0,0,0,2.44922,27.73535,1.25013,1.25013,0,0,1-.98535,1.46778A1.28888,1.28888,0,0,1,279.58252,325.32031Z"/>
    <path d="M380.73926,332.40137A1.25038,1.25038,0,0,1,379.627,330.584a178.79252,178.79252,0,0,0,8.02832-18.90136,1.2497,1.2497,0,1,1,2.35547.83593,180.81494,180.81494,0,0,1-8.15722,19.2002A1.24855,1.24855,0,0,1,380.73926,332.40137Z"/>
    <circle cx="335.34661" cy="348.06362" r="2.55234"/>
    <circle cx="335.73182" cy="356.46432" r="2.55234"/>
    <circle cx="296.78561" cy="346.00588" r="2.55234"/>
    <circle cx="295.62993" cy="354.24399" r="2.55234"/>
    <g>
      <circle cx="273.70097" cy="338.58559" r="2.55234"/>
      <circle cx="271.17382" cy="346.51123" r="2.55234"/>
    </g>
    <g>
      <circle cx="368.36659" cy="343.66679" r="2.55234"/>
      <circle cx="368.80107" cy="350.28163" r="2.55234"/>
    </g>
    <circle class="cls-5" cx="315.1573" cy="352.49101" r="5.61515"/>
    <path d="M346.48145,270.05176a1.25145,1.25145,0,0,1-.30957-.03906c-7.43653-1.89454-26.89161-5.85547-46.88917-1.70313a1.24975,1.24975,0,1,1-.5083-2.44727c20.50684-4.26074,40.41114-.21,48.01465,1.72852a1.24985,1.24985,0,0,1-.30761,2.46094Z"/>
    <path d="M346.46,265.07617a1.25076,1.25076,0,0,1-.41406-.07031c-.20313-.07129-20.40137-7.00879-42.57715-1.87207a1.24994,1.24994,0,1,1-.56348-2.43555c22.90625-5.30517,43.12012,1.65039,43.96973,1.94824a1.25047,1.25047,0,0,1-.415,2.42969Z"/>
    <rect class="cls-5" x="310.9438" y="272.37454" width="21.84746" height="8.49623" rx="4.24811" transform="translate(11.83845 -13.2062) rotate(2.39454)"/>
    <path d="M248.67383,291.82617a1.2501,1.2501,0,0,1-1.0459-1.93262c6.76269-10.37011,17.751-19.87109,18.21533-20.2705a1.24958,1.24958,0,1,1,1.62988,1.89453c-.11084.0957-11.186,9.67578-17.75146,19.74121A1.24712,1.24712,0,0,1,248.67383,291.82617Z"/>
    <path d="M351.90918,251.47656a1.25076,1.25076,0,0,1-1.23828-1.09179,108.74077,108.74077,0,0,1-.22754-21.86573,1.24963,1.24963,0,1,1,2.48633.25391,108.30951,108.30951,0,0,0,.22168,21.29541,1.25066,1.25066,0,0,1-1.082,1.39795A1.27259,1.27259,0,0,1,351.90918,251.47656Z"/>
    <path d="M337.0752,214.49805a1.26931,1.26931,0,0,1-.18555-.01367c-.12207-.01807-12.31787-1.8003-21.1543-.06592a1.25,1.25,0,0,1-.48144-2.45313c9.26367-1.81982,21.49023-.03125,22.00488.04639a1.25,1.25,0,0,1-.18359,2.48633Z"/>
    <path d="M346.01172,335.88574a1.10012,1.10012,0,0,1-.13867-.00781c-.3086-.03418-31.1626-3.59766-56.08008-20.208a1.25,1.25,0,1,1,1.38672-2.08008c24.39746,16.26368,54.66406,19.76954,54.96777,19.80371a1.24991,1.24991,0,0,1-.13574,2.49219Z"/>
    <path d="M314.65186,388.59961a1.24973,1.24973,0,0,1-1.07813-.61621,65.23173,65.23173,0,0,1-7.478-30.75586,1.25,1.25,0,0,1,2.5,0,63.94781,63.94781,0,0,0,7.1333,29.48926,1.25073,1.25073,0,0,1-1.07714,1.88281Z"/>
    <path d="M320.72949,294.4209q-.32081,0-.64209-.01074c-6.38672-.19825-11.83105-4.15625-15.74365-11.44727a42.55788,42.55788,0,0,1-3.957-10.80566,1.25007,1.25007,0,0,1,2.4541-.47754c.03857.19824,4.03174,19.81933,17.32422,20.23242,15.12305.4668,23.49414-18.06055,23.57617-18.24707a1.24976,1.24976,0,1,1,2.28906,1.00391,43.8226,43.8226,0,0,1-6.49707,10.002C334.00684,291.06055,327.51758,294.4209,320.72949,294.4209Z"/>
    <path class="cls-18" d="M152.94141,330.13574a7.54875,7.54875,0,1,1,3.05127-.65039h0A7.511,7.511,0,0,1,152.94141,330.13574Zm-.00928-12.583A5.03968,5.03968,0,1,0,154.98,327.2002h0a5.03957,5.03957,0,0,0-2.04785-9.64747Z"/>
    <circle class="cls-19" cx="451.19397" cy="381.80505" r="9.1295"/>
    <path class="cls-18" d="M161.292,309.50977a4.466,4.466,0,1,1,1.80127-.38477A4.44443,4.44443,0,0,1,161.292,309.50977Zm-.0039-6.4043a1.95064,1.95064,0,1,0,.79248,3.73437h.001a1.95079,1.95079,0,0,0-.79345-3.73437Z"/>
    <path class="cls-18" d="M375.124,216.30908a8.1293,8.1293,0,1,1,3.28223-.69629h-.001A8.082,8.082,0,0,1,375.124,216.30908Zm-.02148-13.76562a5.633,5.633,0,1,0,2.29,10.7832h0a5.63282,5.63282,0,0,0-2.29-10.7832Z"/>
    <path class="cls-18" d="M388.13184,192.52539a5.73277,5.73277,0,1,1,2.31836-.49414l-.001.00049A5.716,5.716,0,0,1,388.13184,192.52539Zm-.00293-8.96a3.22838,3.22838,0,1,0,1.30761,6.18066h0a3.2295,3.2295,0,0,0-1.30761-6.18066Z"/>
    <path class="cls-18" d="M375.1543,170.32715a4.26907,4.26907,0,1,1,1.72265-.36572h0A4.24612,4.24612,0,0,1,375.1543,170.32715Zm-.00684-6.04a1.77009,1.77009,0,1,0,.71777,3.38818h0a1.77056,1.77056,0,0,0-.71777-3.38818Z"/>
    <path class="cls-18" d="M471.98145,358.69727a7.03418,7.03418,0,1,1,7.03417-7.03418A7.04183,7.04183,0,0,1,471.98145,358.69727Zm0-11.56836a4.53418,4.53418,0,1,0,4.53417,4.53418A4.53951,4.53951,0,0,0,471.98145,347.12891Z"/>
    <path class="cls-18" d="M456.0127,333.10547a5.84424,5.84424,0,1,1,5.84375-5.84473A5.85152,5.85152,0,0,1,456.0127,333.10547Zm0-9.18848a3.34424,3.34424,0,1,0,3.34375,3.34375A3.34775,3.34775,0,0,0,456.0127,323.917Z"/>
    <path class="cls-8" d="M274.29093,357.97832l-4.64131-1.53055a2.04186,2.04186,0,0,1-1.31018-2.5733l7.48858-23.02368a2.04189,2.04189,0,0,1,2.57331-1.31018l4.64132,1.53055a1.02094,1.02094,0,0,1,.65509,1.28665l-8.12015,24.96542A1.02094,1.02094,0,0,1,274.29093,357.97832Z"/>
    <path class="cls-8" d="M361.99191,333.09768l3.71371-.39892a2.04187,2.04187,0,0,1,2.151,1.92652l1.33116,24.17429a2.04187,2.04187,0,0,1-1.92652,2.151l-3.7137.39893a1.02094,1.02094,0,0,1-1.07552-.96326l-1.44343-26.21308A1.021,1.021,0,0,1,361.99191,333.09768Z"/>
    <path class="cls-13" d="M308.98584,222.34733l-27.47594-.01521a11.10778,11.10778,0,0,0-5.59868,1.51057l-13.43971,8.25973,13.63871,18.15244,22.64153-8.14252c1.56923-.51242,2.5527-1.69259,2.4403-2.70415,0,0-.33718-1.96694-2.10356-2.08966l-7.45736-.22185a2.08992,2.08992,0,0,1-1.05531-3.37031h0a11.10771,11.10771,0,0,1,5.78882-3.5971L309.651,226.819a2.27127,2.27127,0,0,0,1.62113-2.87134A2.359,2.359,0,0,0,308.98584,222.34733Z"/>
    <path class="cls-15" d="M277.825,260.31152a15.29687,15.29687,0,0,0,.09142-16.94433l-3.93027-5.96086a15.29966,15.29966,0,0,0-22.23-3.62574c-2.07951,1.63877-4.28757,3.44591-6.5276,5.36228C252.29331,243.734,268.31279,254.13562,277.825,260.31152Z"/>
    <path class="cls-20" d="M472.91063,445.30333l36.61594,30.50049H421.91934l36.61593-30.50049A11.23031,11.23031,0,0,1,472.91063,445.30333Z"/>
    <path class="cls-20" d="M511.507,458.34527l18.6439,17.45855H478.83793l18.6439-17.45855A10.25948,10.25948,0,0,1,511.507,458.34527Z"/>
    <line class="cls-21" x1="481.10115" y1="472.26536" x2="496.32757" y2="457.91497"/>
    <path class="cls-5" d="M502.604,457.01661l.86926,2.2542a5.55067,5.55067,0,0,0,3.18241,3.18241l2.2542.884-2.2542.86927a5.54949,5.54949,0,0,0-3.18241,3.1824l-.86926,2.2542-.884-2.2542a5.54911,5.54911,0,0,0-3.18241-3.1824l-2.21-.86927,2.2542-.884a5.5503,5.5503,0,0,0,3.18241-3.18241Z"/>
    <path class="cls-5" d="M450.63388,455.5745l.95338,2.47233a6.08771,6.08771,0,0,0,3.49035,3.49035l2.47232.96954-2.47232.95338a6.08645,6.08645,0,0,0-3.49035,3.49034l-.95338,2.47233-.96955-2.47233a6.08607,6.08607,0,0,0-3.49035-3.49034l-2.42385-.95338,2.47232-.96954a6.08738,6.08738,0,0,0,3.49036-3.49035Z"/>
    <path class="cls-5" d="M461.09466,447.71963l.64,1.65979a4.08694,4.08694,0,0,0,2.34323,2.34323l1.65979.6509-1.65979.64a4.08619,4.08619,0,0,0-2.34323,2.34323l-.64,1.65979-.65091-1.65979a4.086,4.086,0,0,0-2.34323-2.34323l-1.62724-.64,1.65978-.6509a4.0867,4.0867,0,0,0,2.34324-2.34323Z"/>
    <path class="cls-5" d="M495.12415,444.78445l.64458,1.67156a4.116,4.116,0,0,0,2.35986,2.35986l1.67156.65551-1.67156.64459a4.11508,4.11508,0,0,0-2.35986,2.35985l-.64458,1.67156-.65553-1.67156a4.1148,4.1148,0,0,0-2.35985-2.35985l-1.63879-.64459,1.67156-.65551a4.11574,4.11574,0,0,0,2.35986-2.35986Z"/>
    <path class="cls-5" d="M451.23468,438.59758l-.67382,1.5314a3.86445,3.86445,0,0,0,0,3.12406l.67382,1.53141-1.5314-.67382a3.78746,3.78746,0,0,0-3.12406,0l-1.53141.67382.67382-1.53141a3.86445,3.86445,0,0,0,0-3.12406l-.67382-1.5314,1.53141.67381a3.86981,3.86981,0,0,0,3.12406,0Z"/>
    <path class="cls-8" d="M343.4046,520a11.60628,11.60628,0,0,0-18.84161,0Z"/>
    <path class="cls-8" d="M553.87646,520a17.51714,17.51714,0,0,0-31.11218,0Z"/>
    <path class="cls-8" d="M572.269,520a12.02229,12.02229,0,0,0-20.01654,0Z"/>
    <path class="cls-8" d="M318.99988,520l-13.56842-14.62762a42.87923,42.87923,0,0,0-31.43708-13.71869H225.98419a41.8585,41.8585,0,0,0-33.1712,16.32812l-2.73285,3.55078h-7.86157a23.48171,23.48171,0,0,0-15.78638,6.09839L163.82361,520Z"/>
    <g>
      <path class="cls-8" d="M141.24213,502.69556a3.77466,3.77466,0,0,1,2.50262,4.64514c-.96265,3.3537-2.35461,8.47583-3.15436,12.6593h8.76422c4.27875-4.51575,8.43818-9.5293,8.43818-9.5293s9.67254,6.45111,16.17785,9.5293h5.72052c-.67383-3.50287-6.20971-12.03857-9.358-16.68561a3.77494,3.77494,0,0,1,1.01141-5.24676c5.17432-3.49939,15.04346-8.81049,14.46881-11.56324-.60736-2.90972-14.37872-.95532-20.93579.08088a3.772,3.772,0,0,1-4.21277-2.66681c-1.83142-6.23706-3.7138-19.50312-8.08557-19.15589-4.21643.3349-4.32348,15.42969-5.11309,21.8194a3.76753,3.76753,0,0,1-3.0904,3.254c-6.28509,1.10907-21.46368,2.90332-21.39105,5.42138C123.07941,498.54047,134.9978,500.74158,141.24213,502.69556Z"/>
      <circle class="cls-9" cx="152.04248" cy="495.19821" r="1.54338"/>
      <circle class="cls-9" cx="168.22756" cy="506.43784" r="1.54338"/>
      <circle class="cls-9" cx="171.37466" cy="510.59651" r="1.54338"/>
      <circle class="cls-9" cx="146.47276" cy="493.5831" r="1.54338"/>
      <circle class="cls-9" cx="151.34868" cy="489.79962" r="1.54338"/>
    </g>
    <path class="cls-22" d="M319.47623,225.71044c-7.33,0-13.27216,7.13838-13.27216,15.94408a17.66728,17.66728,0,0,0,3.75074,11.09364l19.6904-21.33135A12.498,12.498,0,0,0,319.47623,225.71044Z"/>
    <g>
      <path class="cls-23" d="M324.44616,237.3475a1.24542,1.24542,0,1,0,1.24487,1.24487A1.24586,1.24586,0,0,0,324.44616,237.3475Z"/>
      <path class="cls-23" d="M312.95541,237.34794a1.24544,1.24544,0,1,0,1.24544,1.24431A1.24417,1.24417,0,0,0,312.95541,237.34794Z"/>
      <path class="cls-24" d="M319.58447,254.02783a1.25026,1.25026,0,0,1-.31445-2.46,41.15432,41.15432,0,0,1,7.69775-1.12646,1.26261,1.26261,0,0,1,1.29688,1.20166,1.24966,1.24966,0,0,1-1.20117,1.29638,38.93747,38.93747,0,0,0-7.1626,1.04737A1.24012,1.24012,0,0,1,319.58447,254.02783Z"/>
      <path class="cls-24" d="M317.18066,249.84668a12.66135,12.66135,0,0,1-2.74365-.22266,2.40258,2.40258,0,0,1-1.73291-1.53125,2.53614,2.53614,0,0,1,.37305-2.41259,23.15293,23.15293,0,0,0,2.45849-4.43653,1.24975,1.24975,0,0,1,2.28125,1.02149,25.264,25.264,0,0,1-2.751,4.92968,12.92113,12.92113,0,0,0,2.69775.14893l.61035-.00244a1.25,1.25,0,0,1,0,2.5l-.59423.00244C317.58105,249.84521,317.38086,249.84668,317.18066,249.84668Z"/>
      <path class="cls-24" d="M324.36865,236.95361a33.46084,33.46084,0,0,1-3.73584-.22558,1.24989,1.24989,0,0,1,.31006-2.48047,29.13882,29.13882,0,0,0,4.48633.17822,1.25,1.25,0,0,1,.13965,2.4961C325.16992,236.94434,324.76562,236.95361,324.36865,236.95361Z"/>
      <path class="cls-24" d="M309.92969,234.75342a1.25,1.25,0,0,1-.15381-2.49024,31.30086,31.30086,0,0,1,4.936-.19336,1.25,1.25,0,1,1-.13964,2.4961,28.96864,28.96864,0,0,0-4.48584.17773A1.21629,1.21629,0,0,1,309.92969,234.75342Z"/>
    </g>
  </g>
</svg>
